<svg xmlns="http://www.w3.org/2000/svg" width="95.355" height="29.705" viewBox="0 0 95.355 29.705">
  <g id="logo" transform="translate(0 0)">
    <path id="Fill_6" data-name="Fill 6" d="M3.367,22.473h0a5.6,5.6,0,0,1-.824-.063A2.6,2.6,0,0,1,.675,21.329C-.667,19.4.209,15.255,1.318,10.011l.093-.439c0-.022.381-2.246,2.29-2.246a1.439,1.439,0,0,1,1.2.505,2.9,2.9,0,0,1,.258,2.112c-.012.062-1.193,6.242-1.193,7.015a1.95,1.95,0,0,0,.207,1.363.8.8,0,0,0,.656.279c.525,0,1.088-.093,1.68-1.208.7-1.315,1.323-3.824,1.906-7.671A4.438,4.438,0,0,1,8.94,8.031a1.532,1.532,0,0,1,1.39-.708,2.957,2.957,0,0,1,.331.02,1.6,1.6,0,0,1,1.147.572,2.723,2.723,0,0,1,.262,2.031c-.143.931-.855,6.833-.883,7.231a2.108,2.108,0,0,0,.418,1.612,1.389,1.389,0,0,0,1.049.414c1.208,0,2.735-1.049,3.8-2.609a63.442,63.442,0,0,1,1.075-6.539c.71-3.217,1.972-7.5,3.959-9.611A1.473,1.473,0,0,1,22.513,0a1.282,1.282,0,0,1,1.1.619A2.6,2.6,0,0,1,23.468,3.2a34.279,34.279,0,0,0-2.341,8.609.105.105,0,0,1,.018-.022,25.686,25.686,0,0,1,4.53-4.079,3.83,3.83,0,0,1,1.789-.569,1.412,1.412,0,0,1,1.262.655c.575.905.246,1.837-1.007,2.848-.043.032-4.328,3.247-4.77,4.045a2.924,2.924,0,0,0,.06,2.077A3.678,3.678,0,0,0,25,18.988a3.168,3.168,0,0,0,1.248.262,4.119,4.119,0,0,0,2.49-1,1.224,1.224,0,0,1,.164-.118,13.025,13.025,0,0,1,.57-3.607,11.052,11.052,0,0,1,4.444-6.144,7.11,7.11,0,0,1,3.9-1.183,5.9,5.9,0,0,1,2.753.635c.7.378,1.12.875,1.12,1.328,0,.891-.544,4.474-.836,6.4-.063.414-.112.74-.14.93-.089.617-.248,2.1.177,2.6a.441.441,0,0,0,.345.161c1.076,0,2.454-1.69,3.117-2.5.092-.113.172-.211.233-.282a1.513,1.513,0,0,1,1.1-.539,1.167,1.167,0,0,1,1,.6,1.621,1.621,0,0,1,.174,1.609,6.245,6.245,0,0,1-2.213,2.328c-1.661,1.2-2.928,1.766-3.987,1.766-1.24,0-2.164-.79-2.824-2.415l0,0c-.255.248-2.561,2.422-4.909,2.422a3.741,3.741,0,0,1-3.169-1.861,7.186,7.186,0,0,1-4.353,1.844c-2.044,0-3.785-1.308-5.174-3.887v.009c-.044.4-.48,3.864-2.23,3.864a1.468,1.468,0,0,1-1.138-.46,2.81,2.81,0,0,1-.505-1.88v0a6.241,6.241,0,0,1-4.843,2.42c-.2,0-.4-.01-.6-.029-2.094-.2-2.848-2.709-2.87-2.785a.041.041,0,0,1,0,.009,6.248,6.248,0,0,1-1.124,1.49A5.036,5.036,0,0,1,3.367,22.473ZM38.019,10.141h-.012a5.212,5.212,0,0,0-2.572.815A5.784,5.784,0,0,0,33.04,15.19a4.058,4.058,0,0,0,.378,3.061.983.983,0,0,0,.762.357A2.8,2.8,0,0,0,36.227,17a21.308,21.308,0,0,0,1.993-6.625.2.2,0,0,0-.2-.231Z" transform="translate(48.348 6.709)" fill="#3c3c3c"/>
    <path id="Fill_9" data-name="Fill 9" d="M19.837.152a2.018,2.018,0,0,0-2.729,1.192A105,105,0,0,1,12.6,12.819,31.556,31.556,0,0,0,4.807,1.095,2.006,2.006,0,0,0,2.2,4.149c.051.043,5.971,5.7,8.349,12.622-4.738,8.27-8.01,7.92-8.219,7.919-1.234,0-2.522.557-2.312,2.363.278,1.925,2.7,1.63,2.7,1.63.995-.1,9.967-1.651,18.595-25.895A2.129,2.129,0,0,0,19.837.152" transform="translate(32.335 1.006)" fill="#3c3c3c"/>
    <path id="Fill_1" data-name="Fill 1" d="M23.569,8.625l-8.34-7.9a2.693,2.693,0,0,0-4.118.535L10.088,2.977l5.257,4.98a.606.606,0,0,1,0,.89.691.691,0,0,1-.94,0L9.411,4.116,3.451,14.139l2.817,2.668a.606.606,0,0,1,0,.89.691.691,0,0,1-.94,0l-2.554-2.42L.35,19.351C-.946,21.53,1.6,23.946,3.9,22.718l10.353-5.524-3.886-3.681a.606.606,0,0,1,0-.89.691.691,0,0,1,.94,0l4.148,3.93L23,12.526a2.4,2.4,0,0,0,.564-3.9" transform="translate(0 5.96)" fill="#ff8c38"/>
    <path id="Fill_4" data-name="Fill 4" d="M1.155,9.727,0,8.576,3.088.57a.892.892,0,1,1,1.664.642L2.391,7.333,6.7,5.656a.892.892,0,1,1,.647,1.662Z" transform="translate(19.961 0)" fill="#25d265"/>
  </g>
</svg>
